# Blender 3.4.0
# www.blender.org
mtllib keycard.mtl
o Plane.001
v 0.326728 0.005127 0.577396
v -0.243987 0.005127 0.577396
v -0.478096 0.005127 -1.103936
v 0.395356 0.005127 -1.103936
v 0.439798 0.005127 0.532954
v 0.240466 0.005127 0.491133
v -0.157725 0.005127 0.491133
v -0.076666 0.005127 -0.177008
v 0.159407 0.005127 -0.177008
v 0.002025 0.005127 -0.177008
v 0.080716 0.005127 -0.177008
v 0.159407 0.005127 0.491133
v -0.076666 0.005127 0.491133
v 0.080716 0.005127 0.373978
v 0.002025 0.005127 0.373978
v -0.478096 0.005127 0.577396
v -0.522538 0.005127 0.532954
v -0.509521 0.005127 0.564379
v 0.395356 0.005127 0.577396
v 0.426781 0.005127 0.564379
v -0.522538 0.005127 -1.059494
v -0.509521 0.005127 -1.090919
v 0.439798 0.005127 -1.059494
v 0.426781 0.005127 -1.090919
v 0.326728 -0.005127 0.577396
v -0.243987 -0.005127 0.577396
v -0.478096 -0.005126 -1.103936
v 0.395356 -0.005126 -1.103936
v 0.439798 -0.005127 0.532954
v 0.240466 -0.005127 0.491133
v -0.157725 -0.005127 0.491133
v -0.076666 -0.005127 -0.177008
v 0.159407 -0.005127 -0.177008
v 0.002025 -0.005127 -0.177008
v 0.080716 -0.005127 -0.177008
v 0.159407 -0.005127 0.491133
v -0.076666 -0.005127 0.491133
v 0.080716 -0.005127 0.373978
v 0.002025 -0.005127 0.373978
v -0.478096 -0.005127 0.577396
v -0.522538 -0.005127 0.532954
v -0.509521 -0.005127 0.564379
v 0.395356 -0.005127 0.577396
v 0.426781 -0.005127 0.564379
v -0.522538 -0.005126 -1.059494
v -0.509521 -0.005126 -1.090919
v 0.439798 -0.005126 -1.059494
v 0.426781 -0.005126 -1.090919
vn -0.0000 1.0000 -0.0000
vn -0.0000 -1.0000 -0.0000
vn -0.0000 -0.0000 1.0000
vn -0.3827 -0.0000 0.9239
vn -0.1951 -0.0000 0.9808
vn 0.9808 -0.0000 -0.1951
vn 0.9239 -0.0000 -0.3827
vn 1.0000 -0.0000 -0.0000
vn 0.3827 -0.0000 -0.9239
vn 0.1951 -0.0000 -0.9808
vn 0.1951 -0.0000 0.9808
vn 0.9239 -0.0000 0.3827
vn 0.9808 -0.0000 0.1951
vn -1.0000 -0.0000 -0.0000
vn -0.1951 -0.0000 -0.9808
vn -0.3827 -0.0000 -0.9239
vn 0.3827 -0.0000 0.9239
vn -0.9808 -0.0000 -0.1951
vn -0.9808 -0.0000 0.1951
vn -0.7071 -0.0000 0.7071
vn -0.9239 -0.0000 -0.3827
vn 0.7071 -0.0000 0.7071
vn -0.9239 -0.0000 0.3827
vt 0.031602 0.452296
vt 0.488946 0.468783
vt 0.334756 0.468737
vt 0.181689 0.478579
vt 0.271644 0.014473
vt 0.240642 0.011052
vt 0.507624 0.014544
vt 0.014651 0.010653
vt 0.519497 0.456785
vt 0.053999 0.430018
vt 0.465647 0.445471
vt 0.358068 0.445438
vt 0.150176 0.461789
vt 0.136356 0.257292
vt 0.380022 0.264933
vt 0.443802 0.264952
vt 0.075276 0.257185
vt 0.078298 0.254534
vt 0.115996 0.257256
vt 0.401282 0.264940
vt 0.422542 0.264946
vt 0.095636 0.257221
vt 0.443748 0.445464
vt 0.077994 0.427404
vt 0.074972 0.430055
vt 0.125614 0.456456
vt 0.379968 0.445445
vt 0.095385 0.399778
vt 0.422497 0.413807
vt 0.115745 0.399814
vt 0.401237 0.413800
vt 0.271507 0.468718
vt 0.241057 0.473084
vt 0.259503 0.456707
vt 0.263018 0.465198
vt 0.249813 0.469315
vt 0.259634 0.481617
vt 0.507487 0.468789
vt 0.013850 0.452002
vt 0.515978 0.465274
vt 0.519627 0.481695
vt 0.005264 0.449307
vt 0.259633 0.026476
vt 0.263153 0.017987
vt 0.253727 0.011037
vt 0.259503 0.001566
vt 0.519627 0.026554
vt 0.516113 0.018063
vt 0.519497 0.001645
vt 0.001566 0.010668
vt 0.031646 0.449644
vt 0.486986 0.470741
vt 0.182305 0.475696
vt 0.240646 0.014996
vt 0.014656 0.014598
vt 0.002411 0.438094
vt 0.527006 0.456746
vt 0.054004 0.427365
vt 0.463688 0.447429
vt 0.151358 0.458627
vt 0.136361 0.254640
vt 0.383173 0.264931
vt 0.075281 0.254532
vt 0.116001 0.254604
vt 0.398513 0.264939
vt 0.425313 0.264947
vt 0.095641 0.254568
vt 0.074976 0.427402
vt 0.126201 0.453651
vt 0.383119 0.445442
vt 0.095389 0.397126
vt 0.425267 0.413808
vt 0.115749 0.397161
vt 0.398467 0.413800
vt 0.240299 0.470470
vt 0.251995 0.456746
vt 0.248677 0.466676
vt 0.252125 0.481656
vt 0.014269 0.449419
vt 0.527136 0.481656
vt 0.006155 0.446620
vt 0.252125 0.026515
vt 0.248771 0.018378
vt 0.253732 0.014982
vt 0.251995 0.001605
vt 0.003137 0.026076
vt 0.527136 0.026515
vt 0.006519 0.017951
vt 0.527006 0.001605
vt 0.001570 0.014612
s 1
usemtl Material.001
f 6/11/1 1/2/1 5/9/1
f 23/47/1 24/48/1 4/7/1 11/21/1 9/16/1
f 7/12/1 21/43/1 17/34/1
f 13/27/1 8/15/1 21/43/1 7/12/1
f 8/15/1 10/20/1 3/5/1 22/44/1 21/43/1
f 17/34/1 2/3/1 7/12/1
f 6/11/1 9/16/1 12/23/1
f 20/40/1 5/9/1 1/2/1 19/38/1
f 10/20/1 11/21/1 4/7/1 3/5/1
f 10/20/1 15/31/1 14/29/1 11/21/1
f 17/34/1 18/35/1 16/32/1
f 9/16/1 6/11/1 5/9/1 23/47/1
f 16/32/1 2/3/1 17/34/1
f 30/58/2 29/56/2 25/51/2
f 47/86/2 33/63/2 35/67/2 28/55/2 48/88/2
f 31/60/2 41/76/2 45/82/2
f 37/69/2 31/60/2 45/82/2 32/61/2
f 32/61/2 45/82/2 46/83/2 27/54/2 34/64/2
f 41/76/2 31/60/2 26/53/2
f 30/58/2 36/68/2 33/63/2
f 44/81/2 43/79/2 25/51/2 29/56/2
f 34/64/2 27/54/2 28/55/2 35/67/2
f 34/64/2 35/67/2 38/71/2 39/73/2
f 41/76/2 40/75/2 42/77/2
f 33/63/2 47/86/2 29/56/2 30/58/2
f 40/75/2 41/76/2 26/53/2
f 8/14/3 32/61/3 34/64/3 10/19/3
f 18/36/4 42/77/4 40/75/5 16/33/5
f 15/30/3 39/73/3 38/71/3 14/28/3
f 23/47/6 47/87/6 48/89/7 24/49/7
f 16/33/5 40/75/5 26/53/3 2/4/3
f 14/29/8 38/72/8 35/66/8 11/21/8
f 24/50/9 48/90/9 28/55/10 4/8/10
f 11/22/3 35/67/3 33/63/3 9/17/3
f 1/1/3 25/51/3 43/79/11 19/39/11
f 20/41/12 44/80/12 29/57/13 5/9/13
f 9/18/14 33/63/14 36/68/14 12/24/14
f 3/6/15 27/54/15 46/84/16 22/45/16
f 19/39/11 43/79/11 44/81/17 20/42/17
f 4/8/10 28/55/10 27/54/15 3/6/15
f 7/13/3 31/60/3 37/69/3 13/26/3
f 21/43/18 45/82/18 41/76/19 17/34/19
f 12/25/3 36/68/3 30/58/3 6/10/3
f 5/9/13 29/57/13 47/87/6 23/47/6
f 6/11/20 30/59/20 25/52/20 1/2/20
f 10/20/14 34/65/14 39/74/14 15/31/14
f 13/27/8 37/70/8 32/62/8 8/15/8
f 22/46/21 46/85/21 45/82/18 21/43/18
f 2/4/22 26/53/22 31/60/22 7/13/22
f 17/34/19 41/76/19 42/78/23 18/37/23
